<svg width="1240" height="640" viewBox="0 0 1240 640" fill="none" xmlns="http://www.w3.org/2000/svg">
<g clip-path="url(#clip0_1_14058)">
<rect width="1240" height="640" rx="50" fill="#0F2028"/>
<g opacity="0.5" filter="url(#filter0_f_1_14058)">
<circle cx="59.9229" cy="719.5" r="176.5" fill="#D2F801" fill-opacity="0.34"/>
</g>
<g opacity="0.5" filter="url(#filter1_f_1_14058)">
<circle cx="369.923" cy="209.5" r="176.5" fill="#D2F801" fill-opacity="0.34"/>
</g>
<g opacity="0.5" filter="url(#filter2_f_1_14058)">
<circle cx="1207.84" cy="-130.092" r="124.908" fill="#D2F801"/>
</g>
<g opacity="0.12" clip-path="url(#clip1_1_14058)">
<mask id="mask0_1_14058" style="mask-type:alpha" maskUnits="userSpaceOnUse" x="-129" y="-190" width="1498" height="1498">
<rect width="1497.02" height="1244.4" transform="translate(-128.079 -189.442)" fill="url(#paint0_radial_1_14058)"/>
</mask>
<g mask="url(#mask0_1_14058)">
<g clip-path="url(#clip2_1_14058)">
<mask id="path-7-inside-1_1_14058" fill="white">
<path d="M-78.1783 -89.6411H21.623V10.1603H-78.1783V-89.6411Z"/>
</mask>
<path d="M21.623 10.1603V11.1999H22.6626V10.1603H21.623ZM20.5834 -89.6411V10.1603H22.6626V-89.6411H20.5834ZM21.623 9.12067H-78.1783V11.1999H21.623V9.12067Z" fill="#D0D5DD" fill-opacity="0.32" mask="url(#path-7-inside-1_1_14058)"/>
<mask id="path-9-inside-2_1_14058" fill="white">
<path d="M21.623 -89.6411H121.424V10.1603H21.623V-89.6411Z"/>
</mask>
<path d="M121.424 10.1603V11.1999H122.464V10.1603H121.424ZM120.385 -89.6411V10.1603H122.464V-89.6411H120.385ZM121.424 9.12067H21.623V11.1999H121.424V9.12067Z" fill="#D0D5DD" fill-opacity="0.32" mask="url(#path-9-inside-2_1_14058)"/>
<mask id="path-11-inside-3_1_14058" fill="white">
<path d="M121.424 -89.6411H221.226V10.1603H121.424V-89.6411Z"/>
</mask>
<path d="M121.424 -89.6411H221.226V10.1603H121.424V-89.6411Z" fill="#F2F4F7" fill-opacity="0.1"/>
<path d="M221.226 10.1603V11.1999H222.265V10.1603H221.226ZM220.186 -89.6411V10.1603H222.265V-89.6411H220.186ZM221.226 9.12067H121.424V11.1999H221.226V9.12067Z" fill="#D0D5DD" fill-opacity="0.32" mask="url(#path-11-inside-3_1_14058)"/>
<mask id="path-13-inside-4_1_14058" fill="white">
<path d="M221.226 -89.6411H321.027V10.1603H221.226V-89.6411Z"/>
</mask>
<path d="M321.027 10.1603V11.1999H322.067V10.1603H321.027ZM319.987 -89.6411V10.1603H322.067V-89.6411H319.987ZM321.027 9.12067H221.226V11.1999H321.027V9.12067Z" fill="#D0D5DD" fill-opacity="0.32" mask="url(#path-13-inside-4_1_14058)"/>
<mask id="path-15-inside-5_1_14058" fill="white">
<path d="M321.027 -89.6411H420.828V10.1603H321.027V-89.6411Z"/>
</mask>
<path d="M420.828 10.1603V11.1999H421.868V10.1603H420.828ZM419.789 -89.6411V10.1603H421.868V-89.6411H419.789ZM420.828 9.12067H321.027V11.1999H420.828V9.12067Z" fill="#D0D5DD" fill-opacity="0.32" mask="url(#path-15-inside-5_1_14058)"/>
<mask id="path-17-inside-6_1_14058" fill="white">
<path d="M420.828 -89.6411H520.63V10.1603H420.828V-89.6411Z"/>
</mask>
<path d="M520.63 10.1603V11.1999H521.669V10.1603H520.63ZM519.59 -89.6411V10.1603H521.669V-89.6411H519.59ZM520.63 9.12067H420.828V11.1999H520.63V9.12067Z" fill="#D0D5DD" fill-opacity="0.32" mask="url(#path-17-inside-6_1_14058)"/>
<mask id="path-19-inside-7_1_14058" fill="white">
<path d="M520.63 -89.6411H620.431V10.1603H520.63V-89.6411Z"/>
</mask>
<path d="M620.431 10.1603V11.1999H621.471V10.1603H620.431ZM619.392 -89.6411V10.1603H621.471V-89.6411H619.392ZM620.431 9.12067H520.63V11.1999H620.431V9.12067Z" fill="#D0D5DD" fill-opacity="0.32" mask="url(#path-19-inside-7_1_14058)"/>
<mask id="path-21-inside-8_1_14058" fill="white">
<path d="M620.431 -89.6411H720.233V10.1603H620.431V-89.6411Z"/>
</mask>
<path d="M720.233 10.1603V11.1999H721.272V10.1603H720.233ZM719.193 -89.6411V10.1603H721.272V-89.6411H719.193ZM720.233 9.12067H620.431V11.1999H720.233V9.12067Z" fill="#D0D5DD" fill-opacity="0.32" mask="url(#path-21-inside-8_1_14058)"/>
<mask id="path-23-inside-9_1_14058" fill="white">
<path d="M720.233 -89.6411H820.034V10.1603H720.233V-89.6411Z"/>
</mask>
<path d="M820.034 10.1603V11.1999H821.074V10.1603H820.034ZM818.994 -89.6411V10.1603H821.074V-89.6411H818.994ZM820.034 9.12067H720.233V11.1999H820.034V9.12067Z" fill="#D0D5DD" fill-opacity="0.32" mask="url(#path-23-inside-9_1_14058)"/>
<mask id="path-25-inside-10_1_14058" fill="white">
<path d="M820.034 -89.6411H919.835V10.1603H820.034V-89.6411Z"/>
</mask>
<path d="M919.835 10.1603V11.1999H920.875V10.1603H919.835ZM918.796 -89.6411V10.1603H920.875V-89.6411H918.796ZM919.835 9.12067H820.034V11.1999H919.835V9.12067Z" fill="#D0D5DD" fill-opacity="0.32" mask="url(#path-25-inside-10_1_14058)"/>
<mask id="path-27-inside-11_1_14058" fill="white">
<path d="M919.835 -89.6411H1019.64V10.1603H919.835V-89.6411Z"/>
</mask>
<path d="M1019.64 10.1603V11.1999H1020.68V10.1603H1019.64ZM1018.6 -89.6411V10.1603H1020.68V-89.6411H1018.6ZM1019.64 9.12067H919.835V11.1999H1019.64V9.12067Z" fill="#D0D5DD" fill-opacity="0.32" mask="url(#path-27-inside-11_1_14058)"/>
<mask id="path-29-inside-12_1_14058" fill="white">
<path d="M1019.64 -89.6411H1119.44V10.1603H1019.64V-89.6411Z"/>
</mask>
<path d="M1019.64 -89.6411H1119.44V10.1603H1019.64V-89.6411Z" fill="#F2F4F7" fill-opacity="0.1"/>
<path d="M1119.44 10.1603V11.1999H1120.48V10.1603H1119.44ZM1118.4 -89.6411V10.1603H1120.48V-89.6411H1118.4ZM1119.44 9.12067H1019.64V11.1999H1119.44V9.12067Z" fill="#D0D5DD" fill-opacity="0.32" mask="url(#path-29-inside-12_1_14058)"/>
<mask id="path-31-inside-13_1_14058" fill="white">
<path d="M1119.44 -89.6411H1219.24V10.1603H1119.44V-89.6411Z"/>
</mask>
<path d="M1219.24 10.1603V11.1999H1220.28V10.1603H1219.24ZM1218.2 -89.6411V10.1603H1220.28V-89.6411H1218.2ZM1219.24 9.12067H1119.44V11.1999H1219.24V9.12067Z" fill="#D0D5DD" fill-opacity="0.32" mask="url(#path-31-inside-13_1_14058)"/>
<mask id="path-33-inside-14_1_14058" fill="white">
<path d="M1219.24 -89.6411H1319.04V10.1603H1219.24V-89.6411Z"/>
</mask>
<path d="M1319.04 10.1603V11.1999H1320.08V10.1603H1319.04ZM1318 -89.6411V10.1603H1320.08V-89.6411H1318ZM1319.04 9.12067H1219.24V11.1999H1319.04V9.12067Z" fill="#D0D5DD" fill-opacity="0.32" mask="url(#path-33-inside-14_1_14058)"/>
<mask id="path-35-inside-15_1_14058" fill="white">
<path d="M-78.1783 10.1606H21.623V109.962H-78.1783V10.1606Z"/>
</mask>
<path d="M21.623 109.962V111.002H22.6626V109.962H21.623ZM20.5834 10.1606V109.962H22.6626V10.1606H20.5834ZM21.623 108.922H-78.1783V111.002H21.623V108.922Z" fill="#D0D5DD" fill-opacity="0.32" mask="url(#path-35-inside-15_1_14058)"/>
<mask id="path-37-inside-16_1_14058" fill="white">
<path d="M21.623 10.1606H121.424V109.962H21.623V10.1606Z"/>
</mask>
<path d="M121.424 109.962V111.002H122.464V109.962H121.424ZM120.385 10.1606V109.962H122.464V10.1606H120.385ZM121.424 108.922H21.623V111.002H121.424V108.922Z" fill="#D0D5DD" fill-opacity="0.32" mask="url(#path-37-inside-16_1_14058)"/>
<mask id="path-39-inside-17_1_14058" fill="white">
<path d="M121.424 10.1606H221.226V109.962H121.424V10.1606Z"/>
</mask>
<path d="M221.226 109.962V111.002H222.265V109.962H221.226ZM220.186 10.1606V109.962H222.265V10.1606H220.186ZM221.226 108.922H121.424V111.002H221.226V108.922Z" fill="#D0D5DD" fill-opacity="0.32" mask="url(#path-39-inside-17_1_14058)"/>
<mask id="path-41-inside-18_1_14058" fill="white">
<path d="M221.226 10.1606H321.027V109.962H221.226V10.1606Z"/>
</mask>
<path d="M321.027 109.962V111.002H322.067V109.962H321.027ZM319.987 10.1606V109.962H322.067V10.1606H319.987ZM321.027 108.922H221.226V111.002H321.027V108.922Z" fill="#D0D5DD" fill-opacity="0.32" mask="url(#path-41-inside-18_1_14058)"/>
<mask id="path-43-inside-19_1_14058" fill="white">
<path d="M321.027 10.1606H420.828V109.962H321.027V10.1606Z"/>
</mask>
<path d="M321.027 10.1606H420.828V109.962H321.027V10.1606Z" fill="#F2F4F7" fill-opacity="0.1"/>
<path d="M420.828 109.962V111.002H421.868V109.962H420.828ZM419.789 10.1606V109.962H421.868V10.1606H419.789ZM420.828 108.922H321.027V111.002H420.828V108.922Z" fill="#D0D5DD" fill-opacity="0.32" mask="url(#path-43-inside-19_1_14058)"/>
<mask id="path-45-inside-20_1_14058" fill="white">
<path d="M420.828 10.1606H520.63V109.962H420.828V10.1606Z"/>
</mask>
<path d="M520.63 109.962V111.002H521.669V109.962H520.63ZM519.59 10.1606V109.962H521.669V10.1606H519.59ZM520.63 108.922H420.828V111.002H520.63V108.922Z" fill="#D0D5DD" fill-opacity="0.32" mask="url(#path-45-inside-20_1_14058)"/>
<mask id="path-47-inside-21_1_14058" fill="white">
<path d="M520.63 10.1606H620.431V109.962H520.63V10.1606Z"/>
</mask>
<path d="M620.431 109.962V111.002H621.471V109.962H620.431ZM619.392 10.1606V109.962H621.471V10.1606H619.392ZM620.431 108.922H520.63V111.002H620.431V108.922Z" fill="#D0D5DD" fill-opacity="0.32" mask="url(#path-47-inside-21_1_14058)"/>
<mask id="path-49-inside-22_1_14058" fill="white">
<path d="M620.431 10.1606H720.233V109.962H620.431V10.1606Z"/>
</mask>
<path d="M720.233 109.962V111.002H721.272V109.962H720.233ZM719.193 10.1606V109.962H721.272V10.1606H719.193ZM720.233 108.922H620.431V111.002H720.233V108.922Z" fill="#D0D5DD" fill-opacity="0.32" mask="url(#path-49-inside-22_1_14058)"/>
<mask id="path-51-inside-23_1_14058" fill="white">
<path d="M720.233 10.1606H820.034V109.962H720.233V10.1606Z"/>
</mask>
<path d="M720.233 10.1606H820.034V109.962H720.233V10.1606Z" fill="#F2F4F7" fill-opacity="0.1"/>
<path d="M820.034 109.962V111.002H821.074V109.962H820.034ZM818.994 10.1606V109.962H821.074V10.1606H818.994ZM820.034 108.922H720.233V111.002H820.034V108.922Z" fill="#D0D5DD" fill-opacity="0.32" mask="url(#path-51-inside-23_1_14058)"/>
<mask id="path-53-inside-24_1_14058" fill="white">
<path d="M820.034 10.1606H919.835V109.962H820.034V10.1606Z"/>
</mask>
<path d="M919.835 109.962V111.002H920.875V109.962H919.835ZM918.796 10.1606V109.962H920.875V10.1606H918.796ZM919.835 108.922H820.034V111.002H919.835V108.922Z" fill="#D0D5DD" fill-opacity="0.32" mask="url(#path-53-inside-24_1_14058)"/>
<mask id="path-55-inside-25_1_14058" fill="white">
<path d="M919.835 10.1606H1019.64V109.962H919.835V10.1606Z"/>
</mask>
<path d="M1019.64 109.962V111.002H1020.68V109.962H1019.64ZM1018.6 10.1606V109.962H1020.68V10.1606H1018.6ZM1019.64 108.922H919.835V111.002H1019.64V108.922Z" fill="#D0D5DD" fill-opacity="0.32" mask="url(#path-55-inside-25_1_14058)"/>
<mask id="path-57-inside-26_1_14058" fill="white">
<path d="M1019.64 10.1606H1119.44V109.962H1019.64V10.1606Z"/>
</mask>
<path d="M1119.44 109.962V111.002H1120.48V109.962H1119.44ZM1118.4 10.1606V109.962H1120.48V10.1606H1118.4ZM1119.44 108.922H1019.64V111.002H1119.44V108.922Z" fill="#D0D5DD" fill-opacity="0.32" mask="url(#path-57-inside-26_1_14058)"/>
<mask id="path-59-inside-27_1_14058" fill="white">
<path d="M1119.44 10.1606H1219.24V109.962H1119.44V10.1606Z"/>
</mask>
<path d="M1219.24 109.962V111.002H1220.28V109.962H1219.24ZM1218.2 10.1606V109.962H1220.28V10.1606H1218.2ZM1219.24 108.922H1119.44V111.002H1219.24V108.922Z" fill="#D0D5DD" fill-opacity="0.32" mask="url(#path-59-inside-27_1_14058)"/>
<mask id="path-61-inside-28_1_14058" fill="white">
<path d="M1219.24 10.1606H1319.04V109.962H1219.24V10.1606Z"/>
</mask>
<path d="M1319.04 109.962V111.002H1320.08V109.962H1319.04ZM1318 10.1606V109.962H1320.08V10.1606H1318ZM1319.04 108.922H1219.24V111.002H1319.04V108.922Z" fill="#D0D5DD" fill-opacity="0.32" mask="url(#path-61-inside-28_1_14058)"/>
<mask id="path-63-inside-29_1_14058" fill="white">
<path d="M-78.1783 109.962H21.623V209.763H-78.1783V109.962Z"/>
</mask>
<path d="M21.623 209.763V210.803H22.6626V209.763H21.623ZM20.5834 109.962V209.763H22.6626V109.962H20.5834ZM21.623 208.724H-78.1783V210.803H21.623V208.724Z" fill="#D0D5DD" fill-opacity="0.32" mask="url(#path-63-inside-29_1_14058)"/>
<mask id="path-65-inside-30_1_14058" fill="white">
<path d="M21.623 109.962H121.424V209.763H21.623V109.962Z"/>
</mask>
<path d="M121.424 209.763V210.803H122.464V209.763H121.424ZM120.385 109.962V209.763H122.464V109.962H120.385ZM121.424 208.724H21.623V210.803H121.424V208.724Z" fill="#D0D5DD" fill-opacity="0.32" mask="url(#path-65-inside-30_1_14058)"/>
<mask id="path-67-inside-31_1_14058" fill="white">
<path d="M121.424 109.962H221.226V209.763H121.424V109.962Z"/>
</mask>
<path d="M221.226 209.763V210.803H222.265V209.763H221.226ZM220.186 109.962V209.763H222.265V109.962H220.186ZM221.226 208.724H121.424V210.803H221.226V208.724Z" fill="#D0D5DD" fill-opacity="0.32" mask="url(#path-67-inside-31_1_14058)"/>
<mask id="path-69-inside-32_1_14058" fill="white">
<path d="M221.226 109.962H321.027V209.763H221.226V109.962Z"/>
</mask>
<path d="M321.027 209.763V210.803H322.067V209.763H321.027ZM319.987 109.962V209.763H322.067V109.962H319.987ZM321.027 208.724H221.226V210.803H321.027V208.724Z" fill="#D0D5DD" fill-opacity="0.32" mask="url(#path-69-inside-32_1_14058)"/>
<mask id="path-71-inside-33_1_14058" fill="white">
<path d="M321.027 109.962H420.828V209.763H321.027V109.962Z"/>
</mask>
<path d="M420.828 209.763V210.803H421.868V209.763H420.828ZM419.789 109.962V209.763H421.868V109.962H419.789ZM420.828 208.724H321.027V210.803H420.828V208.724Z" fill="#D0D5DD" fill-opacity="0.32" mask="url(#path-71-inside-33_1_14058)"/>
<mask id="path-73-inside-34_1_14058" fill="white">
<path d="M420.828 109.962H520.63V209.763H420.828V109.962Z"/>
</mask>
<path d="M520.63 209.763V210.803H521.669V209.763H520.63ZM519.59 109.962V209.763H521.669V109.962H519.59ZM520.63 208.724H420.828V210.803H520.63V208.724Z" fill="#D0D5DD" fill-opacity="0.32" mask="url(#path-73-inside-34_1_14058)"/>
<mask id="path-75-inside-35_1_14058" fill="white">
<path d="M520.63 109.962H620.431V209.763H520.63V109.962Z"/>
</mask>
<path d="M620.431 209.763V210.803H621.471V209.763H620.431ZM619.392 109.962V209.763H621.471V109.962H619.392ZM620.431 208.724H520.63V210.803H620.431V208.724Z" fill="#D0D5DD" fill-opacity="0.32" mask="url(#path-75-inside-35_1_14058)"/>
<mask id="path-77-inside-36_1_14058" fill="white">
<path d="M620.431 109.962H720.233V209.763H620.431V109.962Z"/>
</mask>
<path d="M720.233 209.763V210.803H721.272V209.763H720.233ZM719.193 109.962V209.763H721.272V109.962H719.193ZM720.233 208.724H620.431V210.803H720.233V208.724Z" fill="#D0D5DD" fill-opacity="0.32" mask="url(#path-77-inside-36_1_14058)"/>
<mask id="path-79-inside-37_1_14058" fill="white">
<path d="M720.233 109.962H820.034V209.763H720.233V109.962Z"/>
</mask>
<path d="M820.034 209.763V210.803H821.074V209.763H820.034ZM818.994 109.962V209.763H821.074V109.962H818.994ZM820.034 208.724H720.233V210.803H820.034V208.724Z" fill="#D0D5DD" fill-opacity="0.32" mask="url(#path-79-inside-37_1_14058)"/>
<mask id="path-81-inside-38_1_14058" fill="white">
<path d="M820.034 109.962H919.835V209.763H820.034V109.962Z"/>
</mask>
<path d="M919.835 209.763V210.803H920.875V209.763H919.835ZM918.796 109.962V209.763H920.875V109.962H918.796ZM919.835 208.724H820.034V210.803H919.835V208.724Z" fill="#D0D5DD" fill-opacity="0.32" mask="url(#path-81-inside-38_1_14058)"/>
<mask id="path-83-inside-39_1_14058" fill="white">
<path d="M919.835 109.962H1019.64V209.763H919.835V109.962Z"/>
</mask>
<path d="M1019.64 209.763V210.803H1020.68V209.763H1019.64ZM1018.6 109.962V209.763H1020.68V109.962H1018.6ZM1019.64 208.724H919.835V210.803H1019.64V208.724Z" fill="#D0D5DD" fill-opacity="0.32" mask="url(#path-83-inside-39_1_14058)"/>
<mask id="path-85-inside-40_1_14058" fill="white">
<path d="M1019.64 109.962H1119.44V209.763H1019.64V109.962Z"/>
</mask>
<path d="M1019.64 109.962H1119.44V209.763H1019.64V109.962Z" fill="#F2F4F7" fill-opacity="0.1"/>
<path d="M1119.44 209.763V210.803H1120.48V209.763H1119.44ZM1118.4 109.962V209.763H1120.48V109.962H1118.4ZM1119.44 208.724H1019.64V210.803H1119.44V208.724Z" fill="#D0D5DD" fill-opacity="0.32" mask="url(#path-85-inside-40_1_14058)"/>
<mask id="path-87-inside-41_1_14058" fill="white">
<path d="M1119.44 109.962H1219.24V209.763H1119.44V109.962Z"/>
</mask>
<path d="M1219.24 209.763V210.803H1220.28V209.763H1219.24ZM1218.2 109.962V209.763H1220.28V109.962H1218.2ZM1219.24 208.724H1119.44V210.803H1219.24V208.724Z" fill="#D0D5DD" fill-opacity="0.32" mask="url(#path-87-inside-41_1_14058)"/>
<mask id="path-89-inside-42_1_14058" fill="white">
<path d="M1219.24 109.962H1319.04V209.763H1219.24V109.962Z"/>
</mask>
<path d="M1319.04 209.763V210.803H1320.08V209.763H1319.04ZM1318 109.962V209.763H1320.08V109.962H1318ZM1319.04 208.724H1219.24V210.803H1319.04V208.724Z" fill="#D0D5DD" fill-opacity="0.32" mask="url(#path-89-inside-42_1_14058)"/>
<mask id="path-91-inside-43_1_14058" fill="white">
<path d="M-78.1783 209.763H21.623V309.565H-78.1783V209.763Z"/>
</mask>
<path d="M21.623 309.565V310.604H22.6626V309.565H21.623ZM20.5834 209.763V309.565H22.6626V209.763H20.5834ZM21.623 308.525H-78.1783V310.604H21.623V308.525Z" fill="#D0D5DD" fill-opacity="0.32" mask="url(#path-91-inside-43_1_14058)"/>
<mask id="path-93-inside-44_1_14058" fill="white">
<path d="M21.623 209.763H121.424V309.565H21.623V209.763Z"/>
</mask>
<path d="M121.424 309.565V310.604H122.464V309.565H121.424ZM120.385 209.763V309.565H122.464V209.763H120.385ZM121.424 308.525H21.623V310.604H121.424V308.525Z" fill="#D0D5DD" fill-opacity="0.32" mask="url(#path-93-inside-44_1_14058)"/>
<mask id="path-95-inside-45_1_14058" fill="white">
<path d="M121.424 209.763H221.226V309.565H121.424V209.763Z"/>
</mask>
<path d="M221.226 309.565V310.604H222.265V309.565H221.226ZM220.186 209.763V309.565H222.265V209.763H220.186ZM221.226 308.525H121.424V310.604H221.226V308.525Z" fill="#D0D5DD" fill-opacity="0.32" mask="url(#path-95-inside-45_1_14058)"/>
<mask id="path-97-inside-46_1_14058" fill="white">
<path d="M221.226 209.763H321.027V309.565H221.226V209.763Z"/>
</mask>
<path d="M321.027 309.565V310.604H322.067V309.565H321.027ZM319.987 209.763V309.565H322.067V209.763H319.987ZM321.027 308.525H221.226V310.604H321.027V308.525Z" fill="#D0D5DD" fill-opacity="0.32" mask="url(#path-97-inside-46_1_14058)"/>
<mask id="path-99-inside-47_1_14058" fill="white">
<path d="M321.027 209.763H420.828V309.565H321.027V209.763Z"/>
</mask>
<path d="M420.828 309.565V310.604H421.868V309.565H420.828ZM419.789 209.763V309.565H421.868V209.763H419.789ZM420.828 308.525H321.027V310.604H420.828V308.525Z" fill="#D0D5DD" fill-opacity="0.32" mask="url(#path-99-inside-47_1_14058)"/>
<mask id="path-101-inside-48_1_14058" fill="white">
<path d="M420.828 209.763H520.63V309.565H420.828V209.763Z"/>
</mask>
<path d="M420.828 209.763H520.63V309.565H420.828V209.763Z" fill="#F2F4F7" fill-opacity="0.1"/>
<path d="M520.63 309.565V310.604H521.669V309.565H520.63ZM519.59 209.763V309.565H521.669V209.763H519.59ZM520.63 308.525H420.828V310.604H520.63V308.525Z" fill="#D0D5DD" fill-opacity="0.32" mask="url(#path-101-inside-48_1_14058)"/>
<mask id="path-103-inside-49_1_14058" fill="white">
<path d="M520.63 209.763H620.431V309.565H520.63V209.763Z"/>
</mask>
<path d="M620.431 309.565V310.604H621.471V309.565H620.431ZM619.392 209.763V309.565H621.471V209.763H619.392ZM620.431 308.525H520.63V310.604H620.431V308.525Z" fill="#D0D5DD" fill-opacity="0.32" mask="url(#path-103-inside-49_1_14058)"/>
<mask id="path-105-inside-50_1_14058" fill="white">
<path d="M620.431 209.763H720.233V309.565H620.431V209.763Z"/>
</mask>
<path d="M720.233 309.565V310.604H721.272V309.565H720.233ZM719.193 209.763V309.565H721.272V209.763H719.193ZM720.233 308.525H620.431V310.604H720.233V308.525Z" fill="#D0D5DD" fill-opacity="0.32" mask="url(#path-105-inside-50_1_14058)"/>
<mask id="path-107-inside-51_1_14058" fill="white">
<path d="M720.233 209.763H820.034V309.565H720.233V209.763Z"/>
</mask>
<path d="M820.034 309.565V310.604H821.074V309.565H820.034ZM818.994 209.763V309.565H821.074V209.763H818.994ZM820.034 308.525H720.233V310.604H820.034V308.525Z" fill="#D0D5DD" fill-opacity="0.32" mask="url(#path-107-inside-51_1_14058)"/>
<mask id="path-109-inside-52_1_14058" fill="white">
<path d="M820.034 209.763H919.835V309.565H820.034V209.763Z"/>
</mask>
<path d="M919.835 309.565V310.604H920.875V309.565H919.835ZM918.796 209.763V309.565H920.875V209.763H918.796ZM919.835 308.525H820.034V310.604H919.835V308.525Z" fill="#D0D5DD" fill-opacity="0.32" mask="url(#path-109-inside-52_1_14058)"/>
<mask id="path-111-inside-53_1_14058" fill="white">
<path d="M919.835 209.763H1019.64V309.565H919.835V209.763Z"/>
</mask>
<path d="M1019.64 309.565V310.604H1020.68V309.565H1019.64ZM1018.6 209.763V309.565H1020.68V209.763H1018.6ZM1019.64 308.525H919.835V310.604H1019.64V308.525Z" fill="#D0D5DD" fill-opacity="0.32" mask="url(#path-111-inside-53_1_14058)"/>
<mask id="path-113-inside-54_1_14058" fill="white">
<path d="M1019.64 209.763H1119.44V309.565H1019.64V209.763Z"/>
</mask>
<path d="M1119.44 309.565V310.604H1120.48V309.565H1119.44ZM1118.4 209.763V309.565H1120.48V209.763H1118.4ZM1119.44 308.525H1019.64V310.604H1119.44V308.525Z" fill="#D0D5DD" fill-opacity="0.32" mask="url(#path-113-inside-54_1_14058)"/>
<mask id="path-115-inside-55_1_14058" fill="white">
<path d="M1119.44 209.763H1219.24V309.565H1119.44V209.763Z"/>
</mask>
<path d="M1219.24 309.565V310.604H1220.28V309.565H1219.24ZM1218.2 209.763V309.565H1220.28V209.763H1218.2ZM1219.24 308.525H1119.44V310.604H1219.24V308.525Z" fill="#D0D5DD" fill-opacity="0.32" mask="url(#path-115-inside-55_1_14058)"/>
<mask id="path-117-inside-56_1_14058" fill="white">
<path d="M1219.24 209.763H1319.04V309.565H1219.24V209.763Z"/>
</mask>
<path d="M1319.04 309.565V310.604H1320.08V309.565H1319.04ZM1318 209.763V309.565H1320.08V209.763H1318ZM1319.04 308.525H1219.24V310.604H1319.04V308.525Z" fill="#D0D5DD" fill-opacity="0.32" mask="url(#path-117-inside-56_1_14058)"/>
<mask id="path-119-inside-57_1_14058" fill="white">
<path d="M-78.1783 309.564H21.623V409.366H-78.1783V309.564Z"/>
</mask>
<path d="M21.623 409.366V410.405H22.6626V409.366H21.623ZM20.5834 309.564V409.366H22.6626V309.564H20.5834ZM21.623 408.326H-78.1783V410.405H21.623V408.326Z" fill="#D0D5DD" fill-opacity="0.32" mask="url(#path-119-inside-57_1_14058)"/>
<mask id="path-121-inside-58_1_14058" fill="white">
<path d="M21.623 309.564H121.424V409.366H21.623V309.564Z"/>
</mask>
<path d="M121.424 409.366V410.405H122.464V409.366H121.424ZM120.385 309.564V409.366H122.464V309.564H120.385ZM121.424 408.326H21.623V410.405H121.424V408.326Z" fill="#D0D5DD" fill-opacity="0.32" mask="url(#path-121-inside-58_1_14058)"/>
<mask id="path-123-inside-59_1_14058" fill="white">
<path d="M121.424 309.564H221.226V409.366H121.424V309.564Z"/>
</mask>
<path d="M121.424 309.564H221.226V409.366H121.424V309.564Z" fill="#F2F4F7" fill-opacity="0.1"/>
<path d="M221.226 409.366V410.405H222.265V409.366H221.226ZM220.186 309.564V409.366H222.265V309.564H220.186ZM221.226 408.326H121.424V410.405H221.226V408.326Z" fill="#D0D5DD" fill-opacity="0.32" mask="url(#path-123-inside-59_1_14058)"/>
<mask id="path-125-inside-60_1_14058" fill="white">
<path d="M221.226 309.564H321.027V409.366H221.226V309.564Z"/>
</mask>
<path d="M321.027 409.366V410.405H322.067V409.366H321.027ZM319.987 309.564V409.366H322.067V309.564H319.987ZM321.027 408.326H221.226V410.405H321.027V408.326Z" fill="#D0D5DD" fill-opacity="0.32" mask="url(#path-125-inside-60_1_14058)"/>
<mask id="path-127-inside-61_1_14058" fill="white">
<path d="M321.027 309.564H420.828V409.366H321.027V309.564Z"/>
</mask>
<path d="M420.828 409.366V410.405H421.868V409.366H420.828ZM419.789 309.564V409.366H421.868V309.564H419.789ZM420.828 408.326H321.027V410.405H420.828V408.326Z" fill="#D0D5DD" fill-opacity="0.32" mask="url(#path-127-inside-61_1_14058)"/>
<mask id="path-129-inside-62_1_14058" fill="white">
<path d="M420.828 309.564H520.63V409.366H420.828V309.564Z"/>
</mask>
<path d="M520.63 409.366V410.405H521.669V409.366H520.63ZM519.59 309.564V409.366H521.669V309.564H519.59ZM520.63 408.326H420.828V410.405H520.63V408.326Z" fill="#D0D5DD" fill-opacity="0.32" mask="url(#path-129-inside-62_1_14058)"/>
<mask id="path-131-inside-63_1_14058" fill="white">
<path d="M520.63 309.564H620.431V409.366H520.63V309.564Z"/>
</mask>
<path d="M620.431 409.366V410.405H621.471V409.366H620.431ZM619.392 309.564V409.366H621.471V309.564H619.392ZM620.431 408.326H520.63V410.405H620.431V408.326Z" fill="#D0D5DD" fill-opacity="0.32" mask="url(#path-131-inside-63_1_14058)"/>
<mask id="path-133-inside-64_1_14058" fill="white">
<path d="M620.431 309.564H720.233V409.366H620.431V309.564Z"/>
</mask>
<path d="M720.233 409.366V410.405H721.272V409.366H720.233ZM719.193 309.564V409.366H721.272V309.564H719.193ZM720.233 408.326H620.431V410.405H720.233V408.326Z" fill="#D0D5DD" fill-opacity="0.32" mask="url(#path-133-inside-64_1_14058)"/>
<mask id="path-135-inside-65_1_14058" fill="white">
<path d="M720.233 309.564H820.034V409.366H720.233V309.564Z"/>
</mask>
<path d="M720.233 309.564H820.034V409.366H720.233V309.564Z" fill="#F2F4F7" fill-opacity="0.1"/>
<path d="M820.034 409.366V410.405H821.074V409.366H820.034ZM818.994 309.564V409.366H821.074V309.564H818.994ZM820.034 408.326H720.233V410.405H820.034V408.326Z" fill="#D0D5DD" fill-opacity="0.32" mask="url(#path-135-inside-65_1_14058)"/>
<mask id="path-137-inside-66_1_14058" fill="white">
<path d="M820.034 309.564H919.835V409.366H820.034V309.564Z"/>
</mask>
<path d="M919.835 409.366V410.405H920.875V409.366H919.835ZM918.796 309.564V409.366H920.875V309.564H918.796ZM919.835 408.326H820.034V410.405H919.835V408.326Z" fill="#D0D5DD" fill-opacity="0.32" mask="url(#path-137-inside-66_1_14058)"/>
<mask id="path-139-inside-67_1_14058" fill="white">
<path d="M919.835 309.564H1019.64V409.366H919.835V309.564Z"/>
</mask>
<path d="M1019.64 409.366V410.405H1020.68V409.366H1019.64ZM1018.6 309.564V409.366H1020.68V309.564H1018.6ZM1019.64 408.326H919.835V410.405H1019.64V408.326Z" fill="#D0D5DD" fill-opacity="0.32" mask="url(#path-139-inside-67_1_14058)"/>
<mask id="path-141-inside-68_1_14058" fill="white">
<path d="M1019.64 309.564H1119.44V409.366H1019.64V309.564Z"/>
</mask>
<path d="M1119.44 409.366V410.405H1120.48V409.366H1119.44ZM1118.4 309.564V409.366H1120.48V309.564H1118.4ZM1119.44 408.326H1019.64V410.405H1119.44V408.326Z" fill="#D0D5DD" fill-opacity="0.32" mask="url(#path-141-inside-68_1_14058)"/>
<mask id="path-143-inside-69_1_14058" fill="white">
<path d="M1119.44 309.564H1219.24V409.366H1119.44V309.564Z"/>
</mask>
<path d="M1219.24 409.366V410.405H1220.28V409.366H1219.24ZM1218.2 309.564V409.366H1220.28V309.564H1218.2ZM1219.24 408.326H1119.44V410.405H1219.24V408.326Z" fill="#D0D5DD" fill-opacity="0.32" mask="url(#path-143-inside-69_1_14058)"/>
<mask id="path-145-inside-70_1_14058" fill="white">
<path d="M1219.24 309.564H1319.04V409.366H1219.24V309.564Z"/>
</mask>
<path d="M1319.04 409.366V410.405H1320.08V409.366H1319.04ZM1318 309.564V409.366H1320.08V309.564H1318ZM1319.04 408.326H1219.24V410.405H1319.04V408.326Z" fill="#D0D5DD" fill-opacity="0.32" mask="url(#path-145-inside-70_1_14058)"/>
<mask id="path-147-inside-71_1_14058" fill="white">
<path d="M-78.1783 409.366H21.623V509.167H-78.1783V409.366Z"/>
</mask>
<path d="M-78.1783 409.366H21.623V509.167H-78.1783V409.366Z" fill="#F2F4F7" fill-opacity="0.1"/>
<path d="M21.623 509.167V510.207H22.6626V509.167H21.623ZM20.5834 409.366V509.167H22.6626V409.366H20.5834ZM21.623 508.128H-78.1783V510.207H21.623V508.128Z" fill="#D0D5DD" fill-opacity="0.32" mask="url(#path-147-inside-71_1_14058)"/>
<mask id="path-149-inside-72_1_14058" fill="white">
<path d="M21.623 409.366H121.424V509.167H21.623V409.366Z"/>
</mask>
<path d="M121.424 509.167V510.207H122.464V509.167H121.424ZM120.385 409.366V509.167H122.464V409.366H120.385ZM121.424 508.128H21.623V510.207H121.424V508.128Z" fill="#D0D5DD" fill-opacity="0.32" mask="url(#path-149-inside-72_1_14058)"/>
<mask id="path-151-inside-73_1_14058" fill="white">
<path d="M121.424 409.366H221.226V509.167H121.424V409.366Z"/>
</mask>
<path d="M221.226 509.167V510.207H222.265V509.167H221.226ZM220.186 409.366V509.167H222.265V409.366H220.186ZM221.226 508.128H121.424V510.207H221.226V508.128Z" fill="#D0D5DD" fill-opacity="0.32" mask="url(#path-151-inside-73_1_14058)"/>
<mask id="path-153-inside-74_1_14058" fill="white">
<path d="M221.226 409.366H321.027V509.167H221.226V409.366Z"/>
</mask>
<path d="M321.027 509.167V510.207H322.067V509.167H321.027ZM319.987 409.366V509.167H322.067V409.366H319.987ZM321.027 508.128H221.226V510.207H321.027V508.128Z" fill="#D0D5DD" fill-opacity="0.32" mask="url(#path-153-inside-74_1_14058)"/>
<mask id="path-155-inside-75_1_14058" fill="white">
<path d="M321.027 409.366H420.828V509.167H321.027V409.366Z"/>
</mask>
<path d="M420.828 509.167V510.207H421.868V509.167H420.828ZM419.789 409.366V509.167H421.868V409.366H419.789ZM420.828 508.128H321.027V510.207H420.828V508.128Z" fill="#D0D5DD" fill-opacity="0.32" mask="url(#path-155-inside-75_1_14058)"/>
<mask id="path-157-inside-76_1_14058" fill="white">
<path d="M420.828 409.366H520.63V509.167H420.828V409.366Z"/>
</mask>
<path d="M520.63 509.167V510.207H521.669V509.167H520.63ZM519.59 409.366V509.167H521.669V409.366H519.59ZM520.63 508.128H420.828V510.207H520.63V508.128Z" fill="#D0D5DD" fill-opacity="0.32" mask="url(#path-157-inside-76_1_14058)"/>
<mask id="path-159-inside-77_1_14058" fill="white">
<path d="M520.63 409.366H620.431V509.167H520.63V409.366Z"/>
</mask>
<path d="M620.431 509.167V510.207H621.471V509.167H620.431ZM619.392 409.366V509.167H621.471V409.366H619.392ZM620.431 508.128H520.63V510.207H620.431V508.128Z" fill="#D0D5DD" fill-opacity="0.32" mask="url(#path-159-inside-77_1_14058)"/>
<mask id="path-161-inside-78_1_14058" fill="white">
<path d="M620.431 409.366H720.233V509.167H620.431V409.366Z"/>
</mask>
<path d="M720.233 509.167V510.207H721.272V509.167H720.233ZM719.193 409.366V509.167H721.272V409.366H719.193ZM720.233 508.128H620.431V510.207H720.233V508.128Z" fill="#D0D5DD" fill-opacity="0.32" mask="url(#path-161-inside-78_1_14058)"/>
<mask id="path-163-inside-79_1_14058" fill="white">
<path d="M720.233 409.366H820.034V509.167H720.233V409.366Z"/>
</mask>
<path d="M820.034 509.167V510.207H821.074V509.167H820.034ZM818.994 409.366V509.167H821.074V409.366H818.994ZM820.034 508.128H720.233V510.207H820.034V508.128Z" fill="#D0D5DD" fill-opacity="0.32" mask="url(#path-163-inside-79_1_14058)"/>
<mask id="path-165-inside-80_1_14058" fill="white">
<path d="M820.034 409.366H919.835V509.167H820.034V409.366Z"/>
</mask>
<path d="M919.835 509.167V510.207H920.875V509.167H919.835ZM918.796 409.366V509.167H920.875V409.366H918.796ZM919.835 508.128H820.034V510.207H919.835V508.128Z" fill="#D0D5DD" fill-opacity="0.32" mask="url(#path-165-inside-80_1_14058)"/>
<mask id="path-167-inside-81_1_14058" fill="white">
<path d="M919.835 409.366H1019.64V509.167H919.835V409.366Z"/>
</mask>
<path d="M1019.64 509.167V510.207H1020.68V509.167H1019.64ZM1018.6 409.366V509.167H1020.68V409.366H1018.6ZM1019.64 508.128H919.835V510.207H1019.64V508.128Z" fill="#D0D5DD" fill-opacity="0.32" mask="url(#path-167-inside-81_1_14058)"/>
<mask id="path-169-inside-82_1_14058" fill="white">
<path d="M1019.64 409.366H1119.44V509.167H1019.64V409.366Z"/>
</mask>
<path d="M1119.44 509.167V510.207H1120.48V509.167H1119.44ZM1118.4 409.366V509.167H1120.48V409.366H1118.4ZM1119.44 508.128H1019.64V510.207H1119.44V508.128Z" fill="#D0D5DD" fill-opacity="0.32" mask="url(#path-169-inside-82_1_14058)"/>
<mask id="path-171-inside-83_1_14058" fill="white">
<path d="M1119.44 409.366H1219.24V509.167H1119.44V409.366Z"/>
</mask>
<path d="M1219.24 509.167V510.207H1220.28V509.167H1219.24ZM1218.2 409.366V509.167H1220.28V409.366H1218.2ZM1219.24 508.128H1119.44V510.207H1219.24V508.128Z" fill="#D0D5DD" fill-opacity="0.32" mask="url(#path-171-inside-83_1_14058)"/>
<mask id="path-173-inside-84_1_14058" fill="white">
<path d="M1219.24 409.366H1319.04V509.167H1219.24V409.366Z"/>
</mask>
<path d="M1219.24 409.366H1319.04V509.167H1219.24V409.366Z" fill="#F2F4F7" fill-opacity="0.1"/>
<path d="M1319.04 509.167V510.207H1320.08V509.167H1319.04ZM1318 409.366V509.167H1320.08V409.366H1318ZM1319.04 508.128H1219.24V510.207H1319.04V508.128Z" fill="#D0D5DD" fill-opacity="0.32" mask="url(#path-173-inside-84_1_14058)"/>
<mask id="path-175-inside-85_1_14058" fill="white">
<path d="M-78.1783 509.167H21.623V608.969H-78.1783V509.167Z"/>
</mask>
<path d="M21.623 608.969V610.008H22.6626V608.969H21.623ZM20.5834 509.167V608.969H22.6626V509.167H20.5834ZM21.623 607.929H-78.1783V610.008H21.623V607.929Z" fill="#D0D5DD" fill-opacity="0.32" mask="url(#path-175-inside-85_1_14058)"/>
<mask id="path-177-inside-86_1_14058" fill="white">
<path d="M21.623 509.167H121.424V608.969H21.623V509.167Z"/>
</mask>
<path d="M121.424 608.969V610.008H122.464V608.969H121.424ZM120.385 509.167V608.969H122.464V509.167H120.385ZM121.424 607.929H21.623V610.008H121.424V607.929Z" fill="#D0D5DD" fill-opacity="0.32" mask="url(#path-177-inside-86_1_14058)"/>
<mask id="path-179-inside-87_1_14058" fill="white">
<path d="M121.424 509.167H221.226V608.969H121.424V509.167Z"/>
</mask>
<path d="M221.226 608.969V610.008H222.265V608.969H221.226ZM220.186 509.167V608.969H222.265V509.167H220.186ZM221.226 607.929H121.424V610.008H221.226V607.929Z" fill="#D0D5DD" fill-opacity="0.32" mask="url(#path-179-inside-87_1_14058)"/>
<mask id="path-181-inside-88_1_14058" fill="white">
<path d="M221.226 509.167H321.027V608.969H221.226V509.167Z"/>
</mask>
<path d="M321.027 608.969V610.008H322.067V608.969H321.027ZM319.987 509.167V608.969H322.067V509.167H319.987ZM321.027 607.929H221.226V610.008H321.027V607.929Z" fill="#D0D5DD" fill-opacity="0.32" mask="url(#path-181-inside-88_1_14058)"/>
<mask id="path-183-inside-89_1_14058" fill="white">
<path d="M321.027 509.167H420.828V608.969H321.027V509.167Z"/>
</mask>
<path d="M420.828 608.969V610.008H421.868V608.969H420.828ZM419.789 509.167V608.969H421.868V509.167H419.789ZM420.828 607.929H321.027V610.008H420.828V607.929Z" fill="#D0D5DD" fill-opacity="0.32" mask="url(#path-183-inside-89_1_14058)"/>
<mask id="path-185-inside-90_1_14058" fill="white">
<path d="M420.828 509.167H520.63V608.969H420.828V509.167Z"/>
</mask>
<path d="M420.828 509.167H520.63V608.969H420.828V509.167Z" fill="#F2F4F7" fill-opacity="0.1"/>
<path d="M520.63 608.969V610.008H521.669V608.969H520.63ZM519.59 509.167V608.969H521.669V509.167H519.59ZM520.63 607.929H420.828V610.008H520.63V607.929Z" fill="#D0D5DD" fill-opacity="0.32" mask="url(#path-185-inside-90_1_14058)"/>
<mask id="path-187-inside-91_1_14058" fill="white">
<path d="M520.63 509.167H620.431V608.969H520.63V509.167Z"/>
</mask>
<path d="M620.431 608.969V610.008H621.471V608.969H620.431ZM619.392 509.167V608.969H621.471V509.167H619.392ZM620.431 607.929H520.63V610.008H620.431V607.929Z" fill="#D0D5DD" fill-opacity="0.32" mask="url(#path-187-inside-91_1_14058)"/>
<mask id="path-189-inside-92_1_14058" fill="white">
<path d="M620.431 509.167H720.233V608.969H620.431V509.167Z"/>
</mask>
<path d="M720.233 608.969V610.008H721.272V608.969H720.233ZM719.193 509.167V608.969H721.272V509.167H719.193ZM720.233 607.929H620.431V610.008H720.233V607.929Z" fill="#D0D5DD" fill-opacity="0.32" mask="url(#path-189-inside-92_1_14058)"/>
<mask id="path-191-inside-93_1_14058" fill="white">
<path d="M720.233 509.167H820.034V608.969H720.233V509.167Z"/>
</mask>
<path d="M820.034 608.969V610.008H821.074V608.969H820.034ZM818.994 509.167V608.969H821.074V509.167H818.994ZM820.034 607.929H720.233V610.008H820.034V607.929Z" fill="#D0D5DD" fill-opacity="0.32" mask="url(#path-191-inside-93_1_14058)"/>
<mask id="path-193-inside-94_1_14058" fill="white">
<path d="M820.034 509.167H919.835V608.969H820.034V509.167Z"/>
</mask>
<path d="M919.835 608.969V610.008H920.875V608.969H919.835ZM918.796 509.167V608.969H920.875V509.167H918.796ZM919.835 607.929H820.034V610.008H919.835V607.929Z" fill="#D0D5DD" fill-opacity="0.32" mask="url(#path-193-inside-94_1_14058)"/>
<mask id="path-195-inside-95_1_14058" fill="white">
<path d="M919.835 509.167H1019.64V608.969H919.835V509.167Z"/>
</mask>
<path d="M1019.64 608.969V610.008H1020.68V608.969H1019.64ZM1018.6 509.167V608.969H1020.68V509.167H1018.6ZM1019.64 607.929H919.835V610.008H1019.64V607.929Z" fill="#D0D5DD" fill-opacity="0.32" mask="url(#path-195-inside-95_1_14058)"/>
<mask id="path-197-inside-96_1_14058" fill="white">
<path d="M1019.64 509.167H1119.44V608.969H1019.64V509.167Z"/>
</mask>
<path d="M1019.64 509.167H1119.44V608.969H1019.64V509.167Z" fill="#F2F4F7" fill-opacity="0.1"/>
<path d="M1119.44 608.969V610.008H1120.48V608.969H1119.44ZM1118.4 509.167V608.969H1120.48V509.167H1118.4ZM1119.44 607.929H1019.64V610.008H1119.44V607.929Z" fill="#D0D5DD" fill-opacity="0.32" mask="url(#path-197-inside-96_1_14058)"/>
<mask id="path-199-inside-97_1_14058" fill="white">
<path d="M1119.44 509.167H1219.24V608.969H1119.44V509.167Z"/>
</mask>
<path d="M1219.24 608.969V610.008H1220.28V608.969H1219.24ZM1218.2 509.167V608.969H1220.28V509.167H1218.2ZM1219.24 607.929H1119.44V610.008H1219.24V607.929Z" fill="#D0D5DD" fill-opacity="0.32" mask="url(#path-199-inside-97_1_14058)"/>
<mask id="path-201-inside-98_1_14058" fill="white">
<path d="M1219.24 509.167H1319.04V608.969H1219.24V509.167Z"/>
</mask>
<path d="M1319.04 608.969V610.008H1320.08V608.969H1319.04ZM1318 509.167V608.969H1320.08V509.167H1318ZM1319.04 607.929H1219.24V610.008H1319.04V607.929Z" fill="#D0D5DD" fill-opacity="0.32" mask="url(#path-201-inside-98_1_14058)"/>
<mask id="path-203-inside-99_1_14058" fill="white">
<path d="M-78.1783 608.969H21.623V708.77H-78.1783V608.969Z"/>
</mask>
<path d="M21.623 708.77V709.81H22.6626V708.77H21.623ZM20.5834 608.969V708.77H22.6626V608.969H20.5834ZM21.623 707.731H-78.1783V709.81H21.623V707.731Z" fill="#D0D5DD" fill-opacity="0.32" mask="url(#path-203-inside-99_1_14058)"/>
<mask id="path-205-inside-100_1_14058" fill="white">
<path d="M21.623 608.969H121.424V708.77H21.623V608.969Z"/>
</mask>
<path d="M121.424 708.77V709.81H122.464V708.77H121.424ZM120.385 608.969V708.77H122.464V608.969H120.385ZM121.424 707.731H21.623V709.81H121.424V707.731Z" fill="#D0D5DD" fill-opacity="0.32" mask="url(#path-205-inside-100_1_14058)"/>
<mask id="path-207-inside-101_1_14058" fill="white">
<path d="M121.424 608.969H221.226V708.77H121.424V608.969Z"/>
</mask>
<path d="M121.424 608.969H221.226V708.77H121.424V608.969Z" fill="#F2F4F7" fill-opacity="0.1"/>
<path d="M221.226 708.77V709.81H222.265V708.77H221.226ZM220.186 608.969V708.77H222.265V608.969H220.186ZM221.226 707.731H121.424V709.81H221.226V707.731Z" fill="#D0D5DD" fill-opacity="0.32" mask="url(#path-207-inside-101_1_14058)"/>
<mask id="path-209-inside-102_1_14058" fill="white">
<path d="M221.226 608.969H321.027V708.77H221.226V608.969Z"/>
</mask>
<path d="M321.027 708.77V709.81H322.067V708.77H321.027ZM319.987 608.969V708.77H322.067V608.969H319.987ZM321.027 707.731H221.226V709.81H321.027V707.731Z" fill="#D0D5DD" fill-opacity="0.32" mask="url(#path-209-inside-102_1_14058)"/>
<mask id="path-211-inside-103_1_14058" fill="white">
<path d="M321.027 608.969H420.828V708.77H321.027V608.969Z"/>
</mask>
<path d="M420.828 708.77V709.81H421.868V708.77H420.828ZM419.789 608.969V708.77H421.868V608.969H419.789ZM420.828 707.731H321.027V709.81H420.828V707.731Z" fill="#D0D5DD" fill-opacity="0.32" mask="url(#path-211-inside-103_1_14058)"/>
<mask id="path-213-inside-104_1_14058" fill="white">
<path d="M420.828 608.969H520.63V708.77H420.828V608.969Z"/>
</mask>
<path d="M520.63 708.77V709.81H521.669V708.77H520.63ZM519.59 608.969V708.77H521.669V608.969H519.59ZM520.63 707.731H420.828V709.81H520.63V707.731Z" fill="#D0D5DD" fill-opacity="0.32" mask="url(#path-213-inside-104_1_14058)"/>
<mask id="path-215-inside-105_1_14058" fill="white">
<path d="M520.63 608.969H620.431V708.77H520.63V608.969Z"/>
</mask>
<path d="M620.431 708.77V709.81H621.471V708.77H620.431ZM619.392 608.969V708.77H621.471V608.969H619.392ZM620.431 707.731H520.63V709.81H620.431V707.731Z" fill="#D0D5DD" fill-opacity="0.32" mask="url(#path-215-inside-105_1_14058)"/>
<mask id="path-217-inside-106_1_14058" fill="white">
<path d="M620.431 608.969H720.233V708.77H620.431V608.969Z"/>
</mask>
<path d="M720.233 708.77V709.81H721.272V708.77H720.233ZM719.193 608.969V708.77H721.272V608.969H719.193ZM720.233 707.731H620.431V709.81H720.233V707.731Z" fill="#D0D5DD" fill-opacity="0.32" mask="url(#path-217-inside-106_1_14058)"/>
<mask id="path-219-inside-107_1_14058" fill="white">
<path d="M720.233 608.969H820.034V708.77H720.233V608.969Z"/>
</mask>
<path d="M720.233 608.969H820.034V708.77H720.233V608.969Z" fill="#F2F4F7" fill-opacity="0.1"/>
<path d="M820.034 708.77V709.81H821.074V708.77H820.034ZM818.994 608.969V708.77H821.074V608.969H818.994ZM820.034 707.731H720.233V709.81H820.034V707.731Z" fill="#D0D5DD" fill-opacity="0.32" mask="url(#path-219-inside-107_1_14058)"/>
<mask id="path-221-inside-108_1_14058" fill="white">
<path d="M820.034 608.969H919.835V708.77H820.034V608.969Z"/>
</mask>
<path d="M919.835 708.77V709.81H920.875V708.77H919.835ZM918.796 608.969V708.77H920.875V608.969H918.796ZM919.835 707.731H820.034V709.81H919.835V707.731Z" fill="#D0D5DD" fill-opacity="0.32" mask="url(#path-221-inside-108_1_14058)"/>
<mask id="path-223-inside-109_1_14058" fill="white">
<path d="M919.835 608.969H1019.64V708.77H919.835V608.969Z"/>
</mask>
<path d="M1019.64 708.77V709.81H1020.68V708.77H1019.64ZM1018.6 608.969V708.77H1020.68V608.969H1018.6ZM1019.64 707.731H919.835V709.81H1019.64V707.731Z" fill="#D0D5DD" fill-opacity="0.32" mask="url(#path-223-inside-109_1_14058)"/>
<mask id="path-225-inside-110_1_14058" fill="white">
<path d="M1019.64 608.969H1119.44V708.77H1019.64V608.969Z"/>
</mask>
<path d="M1119.44 708.77V709.81H1120.48V708.77H1119.44ZM1118.4 608.969V708.77H1120.48V608.969H1118.4ZM1119.44 707.731H1019.64V709.81H1119.44V707.731Z" fill="#D0D5DD" fill-opacity="0.32" mask="url(#path-225-inside-110_1_14058)"/>
<mask id="path-227-inside-111_1_14058" fill="white">
<path d="M1119.44 608.969H1219.24V708.77H1119.44V608.969Z"/>
</mask>
<path d="M1219.24 708.77V709.81H1220.28V708.77H1219.24ZM1218.2 608.969V708.77H1220.28V608.969H1218.2ZM1219.24 707.731H1119.44V709.81H1219.24V707.731Z" fill="#D0D5DD" fill-opacity="0.32" mask="url(#path-227-inside-111_1_14058)"/>
<mask id="path-229-inside-112_1_14058" fill="white">
<path d="M1219.24 608.969H1319.04V708.77H1219.24V608.969Z"/>
</mask>
<path d="M1319.04 708.77V709.81H1320.08V708.77H1319.04ZM1318 608.969V708.77H1320.08V608.969H1318ZM1319.04 707.731H1219.24V709.81H1319.04V707.731Z" fill="#D0D5DD" fill-opacity="0.32" mask="url(#path-229-inside-112_1_14058)"/>
</g>
<rect x="-377.063" y="-188.923" width="1994.99" height="1495.98" stroke="#D0D5DD" stroke-opacity="0.32" stroke-width="1.0396"/>
</g>
</g>
</g>
<defs>
<filter id="filter0_f_1_14058" x="-516.577" y="143" width="1153" height="1153" filterUnits="userSpaceOnUse" color-interpolation-filters="sRGB">
<feFlood flood-opacity="0" result="BackgroundImageFix"/>
<feBlend mode="normal" in="SourceGraphic" in2="BackgroundImageFix" result="shape"/>
<feGaussianBlur stdDeviation="200" result="effect1_foregroundBlur_1_14058"/>
</filter>
<filter id="filter1_f_1_14058" x="-206.577" y="-367" width="1153" height="1153" filterUnits="userSpaceOnUse" color-interpolation-filters="sRGB">
<feFlood flood-opacity="0" result="BackgroundImageFix"/>
<feBlend mode="normal" in="SourceGraphic" in2="BackgroundImageFix" result="shape"/>
<feGaussianBlur stdDeviation="200" result="effect1_foregroundBlur_1_14058"/>
</filter>
<filter id="filter2_f_1_14058" x="682.935" y="-655" width="1049.82" height="1049.82" filterUnits="userSpaceOnUse" color-interpolation-filters="sRGB">
<feFlood flood-opacity="0" result="BackgroundImageFix"/>
<feBlend mode="normal" in="SourceGraphic" in2="BackgroundImageFix" result="shape"/>
<feGaussianBlur stdDeviation="200" result="effect1_foregroundBlur_1_14058"/>
</filter>
<radialGradient id="paint0_radial_1_14058" cx="0" cy="0" r="1" gradientUnits="userSpaceOnUse" gradientTransform="translate(748.51 -0.000148344) rotate(90) scale(1244.4 781.349)">
<stop/>
<stop offset="0.953125" stop-opacity="0"/>
</radialGradient>
<clipPath id="clip0_1_14058">
<rect width="1240" height="640" rx="50" fill="white"/>
</clipPath>
<clipPath id="clip1_1_14058">
<rect width="1492.42" height="1020.88" fill="white" transform="translate(-126 -189.442)"/>
</clipPath>
<clipPath id="clip2_1_14058">
<rect x="-377.583" y="-189.442" width="1996.03" height="1497.02" fill="white"/>
</clipPath>
</defs>
</svg>
